<svg width="72" height="71" viewBox="0 0 72 71" fill="none" xmlns="http://www.w3.org/2000/svg">
<path fill-rule="evenodd" clip-rule="evenodd" d="M50.5894 62.0007H21.4106C14.9646 62.0007 9.73907 56.7752 9.73907 50.3292V26.9862C9.73907 23.7632 12.3518 21.1504 15.5748 21.1504H56.4252C59.6482 21.1504 62.2609 23.7632 62.2609 26.9862V50.3292C62.2609 56.7752 57.0354 62.0007 50.5894 62.0007Z" stroke="#C90200" stroke-width="3" stroke-linecap="round" stroke-linejoin="round"/>
<path d="M24.3285 21.1505V15.3148C24.3285 12.0918 26.9412 9.479 30.1642 9.479H41.8358C45.0588 9.479 47.6715 12.0918 47.6715 15.3148V21.1505" stroke="#C90200" stroke-width="3" stroke-linecap="round" stroke-linejoin="round"/>
<rect x="30.1642" y="32.8218" width="11.6715" height="8.75365" rx="0.5" stroke="#C90200" stroke-width="3" stroke-linecap="round" stroke-linejoin="round"/>
<path d="M41.8358 37.1989H52.0484C57.6886 37.1989 62.2609 32.6266 62.2609 26.9863V26.9863" stroke="#C90200" stroke-width="3" stroke-linecap="round" stroke-linejoin="round"/>
<path d="M30.1642 37.1989H19.9517C14.3114 37.1989 9.73907 32.6266 9.73907 26.9863V26.9863" stroke="#C90200" stroke-width="3" stroke-linecap="round" stroke-linejoin="round"/>
</svg>
