<svg width="72" height="73" viewBox="0 0 72 73" fill="none" xmlns="http://www.w3.org/2000/svg">
<path d="M47.9916 21.8251H53.9874" stroke="#C90200" stroke-width="3" stroke-linecap="round" stroke-linejoin="round"/>
<path d="M44.9937 30.8188H53.9874" stroke="#C90200" stroke-width="3" stroke-linecap="round" stroke-linejoin="round"/>
<path d="M22.795 15.8296V21.8254" stroke="#C90200" stroke-width="3" stroke-linecap="round" stroke-linejoin="round"/>
<path d="M16.5136 30.8189V24.2235C16.5136 22.899 17.5874 21.8252 18.9119 21.8252H26.1069C27.4315 21.8252 28.5052 22.899 28.5052 24.2235V30.8189" stroke="#C90200" stroke-width="3" stroke-linecap="round" stroke-linejoin="round"/>
<path d="M36 39.8126V33.6169C36 32.0716 34.7473 30.8189 33.202 30.8188H11.8169C10.2716 30.8189 9.01888 32.0716 9.01886 33.6169V63.7958" stroke="#C90200" stroke-width="3" stroke-linecap="round" stroke-linejoin="round"/>
<path d="M18.0126 42.8105H27.0063" stroke="#C90200" stroke-width="3" stroke-linecap="round" stroke-linejoin="round"/>
<path d="M18.0126 51.8041H27.0063" stroke="#C90200" stroke-width="3" stroke-linecap="round" stroke-linejoin="round"/>
<path d="M6.02097 63.7958H36" stroke="#C90200" stroke-width="3" stroke-linecap="round" stroke-linejoin="round"/>
<path d="M36 21.8253V18.0818C36 16.2073 37.1628 14.5295 38.918 13.8713L56.9054 7.12617C58.2863 6.60833 59.8334 6.80057 61.0457 7.64064C62.2579 8.48071 62.9811 9.86181 62.9811 11.3367V30.819" stroke="#C90200" stroke-width="3" stroke-linecap="round" stroke-linejoin="round"/>
<path d="M55.463 47.4009L51.0364 51.8275L56.9385 54.7785L52.5119 59.2051" stroke="#C90200" stroke-width="3" stroke-linecap="round" stroke-linejoin="round"/>
<path d="M53.9874 39.8125C61.4381 39.8125 67.478 45.8524 67.478 53.3031C67.478 60.7537 61.4381 66.7936 53.9874 66.7936C46.5368 66.7936 40.4969 60.7537 40.4969 53.3031C40.4969 45.8524 46.5368 39.8125 53.9874 39.8125" stroke="#C90200" stroke-width="3" stroke-linecap="round" stroke-linejoin="round"/>
</svg>
