<svg width="72" height="71" viewBox="0 0 72 71" fill="none" xmlns="http://www.w3.org/2000/svg">
<path d="M59.3431 29.9042V37.1989C59.3431 39.6161 57.3835 41.5757 54.9662 41.5757H17.0338C14.6165 41.5757 12.6569 39.6161 12.6569 37.1989V15.3148C12.6569 12.0918 15.2697 9.479 18.4927 9.479H27.2464" stroke="#C90200" stroke-width="3" stroke-linecap="round" stroke-linejoin="round"/>
<path fill-rule="evenodd" clip-rule="evenodd" d="M59.7893 21.3987L54.2368 17.9761V11.6809L59.7893 8.25818C60.2894 7.94991 60.9172 7.93636 61.4301 8.22276C61.9431 8.50915 62.2609 9.05067 62.2609 9.63816V20.0188C62.2609 20.6063 61.9431 21.1478 61.4301 21.4342C60.9172 21.7206 60.2894 21.707 59.7893 21.3987V21.3987Z" stroke="#C90200" stroke-width="3" stroke-linecap="round" stroke-linejoin="round"/>
<rect x="36" y="6.56104" width="18.2368" height="16.5347" rx="1.25" stroke="#C90200" stroke-width="3" stroke-linecap="round" stroke-linejoin="round"/>
<path fill-rule="evenodd" clip-rule="evenodd" d="M56.4224 62.0009H15.5776C13.7467 62.0009 12.0219 61.1415 10.9193 59.6798C9.81671 58.2181 9.46413 56.3237 9.96704 54.5632L13.0726 43.6921C13.4304 42.4393 14.5754 41.5757 15.8783 41.5757H56.1217C57.4245 41.5757 58.5695 42.4394 58.9273 43.6921L62.033 54.5632C62.5359 56.3237 62.1833 58.2181 61.0807 59.6798C59.9781 61.1415 58.2533 62.0009 56.4224 62.0009Z" stroke="#C90200" stroke-width="3" stroke-linecap="round" stroke-linejoin="round"/>
<path d="M30.1642 53.247H41.8358" stroke="#C90200" stroke-width="3" stroke-linecap="round" stroke-linejoin="round"/>
</svg>
