<svg width="72" height="71" viewBox="0 0 72 71" fill="none" xmlns="http://www.w3.org/2000/svg">
<path fill-rule="evenodd" clip-rule="evenodd" d="M34.8941 25.1449C29.0428 25.1449 24.2993 29.8883 24.2993 35.7397C24.2993 41.591 29.0428 46.3345 34.8941 46.3345C43.5252 46.3345 45.6436 35.7368 50.5894 32.9123C46.902 27.9607 41.0674 25.0732 34.8941 25.1449V25.1449Z" stroke="#C90200" stroke-width="3" stroke-linecap="round" stroke-linejoin="round"/>
<path d="M59.8099 56.8505V48.8701H51.8324" stroke="#C90200" stroke-width="3" stroke-linecap="round" stroke-linejoin="round"/>
<path d="M13.2551 48.8701C17.9348 56.9993 26.599 62.011 35.9789 62.0146C45.3588 62.0183 54.0268 57.0132 58.7128 48.8876" stroke="#C90200" stroke-width="3" stroke-linecap="round" stroke-linejoin="round"/>
<path d="M9.95497 39.0252C8.98948 31.5441 11.2959 24.01 16.2838 18.3515C21.2718 12.693 28.4569 9.45949 36 9.4786H36.0175C43.5564 9.46161 50.7371 12.694 55.7228 18.349C60.7084 24.004 63.0155 31.5332 62.0538 39.0106" stroke="#C90200" stroke-width="3" stroke-linecap="round" stroke-linejoin="round"/>
<path d="M36.1721 34.5874C30.2473 35.5786 25.0257 39.048 21.8162 44.126" stroke="#C90200" stroke-width="3" stroke-linecap="round" stroke-linejoin="round"/>
</svg>
