<svg width="16" height="17" viewBox="0 0 16 17" fill="none" xmlns="http://www.w3.org/2000/svg">
<g clip-path="url(#clip0_2443_8245)">
<path d="M8 0.739746C3.58176 0.739746 0 4.32151 0 8.73975C0 12.4914 2.58304 15.6396 6.06752 16.5042V11.1845H4.41792V8.73975H6.06752V7.68631C6.06752 4.96343 7.29984 3.70135 9.97312 3.70135C10.48 3.70135 11.3546 3.80087 11.7123 3.90007V6.11607C11.5235 6.09623 11.1955 6.08631 10.7882 6.08631C9.47648 6.08631 8.9696 6.58327 8.9696 7.87511V8.73975H11.5827L11.1338 11.1845H8.9696V16.6812C12.9309 16.2028 16.0003 12.83 16.0003 8.73975C16 4.32151 12.4182 0.739746 8 0.739746Z" fill="white"/>
</g>
<defs>
<clipPath id="clip0_2443_8245">
<rect width="16" height="16" fill="white" transform="translate(0 0.739746)"/>
</clipPath>
</defs>
</svg>
