<svg width="56" height="71" viewBox="0 0 56 71" fill="none" xmlns="http://www.w3.org/2000/svg">
<path d="M27.9899 0.739258C29.1361 1.60882 30.2428 2.30053 31.2112 3.17009C38.484 9.67208 45.1638 16.7077 50.2034 25.1464C53.2666 30.2848 55.3615 35.7196 55.8555 41.767C56.7053 52.0635 50.3022 63.9607 38.9188 68.6445C27.1796 73.4864 13.7211 70.1267 6.1519 60.4627C0.638054 53.4073 -1.18013 45.4627 0.914734 36.7077C2.12027 31.6682 4.49182 27.1227 7.29814 22.8144C11.3298 16.6089 16.2112 11.1148 21.5669 6.03571C23.4642 4.23729 25.1835 2.20171 27.9899 0.739258ZM27.6341 3.92108C20.144 10.6207 13.2468 17.6168 8.12819 26.1938C5.95427 29.8302 4.15585 33.6049 3.24675 37.7749C-0.527957 55.186 14.3337 71.6287 33.2468 67.9923C46.5077 65.4429 57.2982 51.2927 51.9623 35.2848C50.1045 29.7314 47.1994 24.7709 43.7014 20.1069C40.4603 15.7788 36.7251 11.8855 32.8318 8.15034C31.3298 6.70765 30.0255 5.0278 27.6341 3.92108Z" fill="#C90200"/>
<path d="M23.7208 54.7916C22.8315 50.5623 24.5904 46.7283 24.1754 42.8746C23.1872 41.7876 21.9027 42.3607 20.7762 42.1631C19.1951 41.9062 18.5825 41.3331 18.8196 39.8509C19.6299 34.7916 20.4995 29.752 21.3691 24.6927C21.4283 24.337 21.7446 24.001 21.9224 23.6848C24.2742 23.2105 33.2268 23.0919 34.8473 23.5465C35.2031 23.6453 35.4798 23.9813 35.6971 24.1394C35.539 25.8785 34.5904 27.0445 33.958 28.3291C33.3454 29.6137 32.6537 30.8785 31.8434 32.4595C33.3849 32.6769 34.6102 32.835 35.8552 33.0524C36.626 33.1908 37.4363 33.2698 38.1082 33.6256C38.4244 33.7837 38.6023 34.4951 38.6221 34.9694C38.6221 35.3054 38.3058 35.6611 38.0885 35.9773C34.3928 41.4121 30.6971 46.8469 27.0015 52.262C26.5667 52.9141 26.1517 53.6058 25.5588 54.0999C25.1438 54.4556 24.4521 54.5149 23.7208 54.7718V54.7916ZM26.7248 47.341C28.9382 45.2857 33.1675 38.9615 34.3928 35.9971C32.456 35.3449 30.0845 36.3331 28.4046 34.2975C28.8592 32.1829 30.0647 30.3054 31.0924 28.3489C31.4284 27.7362 31.4679 26.9655 31.7248 25.8983C29.3137 25.7006 27.2189 25.6611 25.1438 25.7599C24.2544 25.7995 23.6813 26.3528 23.4639 27.1829C23.207 28.2105 23.0291 29.2382 22.9106 30.2856C22.6339 33.1315 21.626 35.8983 21.7643 38.9022C23.5034 39.337 25.1042 39.7323 26.4481 40.0683C28.0489 42.5386 26.3493 44.7323 26.6853 47.3212L26.7248 47.341Z" fill="#C90200"/>
<path d="M29.5511 64.3953C29.0965 64.3558 28.7803 64.4151 28.5827 64.2965C28.0491 64.0001 27.4364 63.7234 27.1005 63.2688C26.7645 62.7945 27.5748 62.0435 28.6222 62.004C31.5669 61.9052 34.3337 61.1542 36.9226 59.7906C42.1795 57.0435 45.0847 52.5376 46.5076 46.9249C46.8041 45.7787 47.0017 44.6324 47.3574 43.506C47.4365 43.2688 48.0096 43.0119 48.306 43.0514C48.6222 43.0909 49.057 43.4269 49.1756 43.7431C49.3535 44.2174 49.393 44.7708 49.3139 45.2846C47.9305 54.9882 41.3297 62.3993 30.9147 64.2767C30.4009 64.3756 29.8673 64.3756 29.5313 64.3953H29.5511Z" fill="#C90200"/>
</svg>
