<svg width="72" height="78" viewBox="0 0 72 78" fill="none" xmlns="http://www.w3.org/2000/svg">
<path d="M70.3306 66.7498H20.611C20.0455 66.7498 19.542 66.3872 19.3639 65.8486L9.60182 36.2559C9.46923 35.8561 9.53762 35.4169 9.78416 35.075C10.0307 34.7332 10.4264 34.5322 10.8469 34.5322H60.5665C61.1321 34.5322 61.6355 34.8948 61.8137 35.4334L71.5758 65.0261C71.7083 65.426 71.6399 65.8652 71.3934 66.207C71.1469 66.5488 70.7512 66.7498 70.3306 66.7498ZM21.5599 64.1249H68.5137L59.6176 37.1571H12.6638L21.5599 64.1249Z" fill="#C90200"/>
<path d="M55.3228 61.8456C54.7718 61.8456 54.258 61.4955 54.0757 60.9444L47.5497 41.1593C47.3218 40.4715 47.6968 39.7278 48.3846 39.502C49.0724 39.2761 49.8141 39.6491 50.042 40.3369L56.568 60.1219C56.7958 60.8098 56.4209 61.5535 55.733 61.7793C55.5963 61.8249 55.4575 61.8456 55.3228 61.8456Z" fill="#C90200"/>
<path d="M43.8661 61.8456C43.315 61.8456 42.8012 61.4955 42.6189 60.9444L36.0929 41.1593C35.865 40.4715 36.24 39.7278 36.9278 39.502C37.6135 39.2761 38.3573 39.6491 38.5852 40.3369L45.1112 60.1219C45.339 60.8098 44.9641 61.5535 44.2763 61.7793C44.1396 61.8249 44.0008 61.8456 43.8661 61.8456Z" fill="#C90200"/>
<path d="M61.6084 56.749H23.0741C22.349 56.749 21.7606 56.1607 21.7606 55.4355C21.7606 54.7104 22.349 54.1221 23.0741 54.1221H61.6084C62.3335 54.1221 62.9219 54.7104 62.9219 55.4355C62.9219 56.1607 62.3335 56.749 61.6084 56.749Z" fill="#C90200"/>
<path d="M32.4095 61.8456C31.8584 61.8456 31.3446 61.4955 31.1623 60.9444L24.6363 41.1593C24.4084 40.4715 24.7834 39.7278 25.4712 39.502C26.159 39.2761 26.9007 39.6491 27.1286 40.3369L33.6546 60.1219C33.8825 60.8098 33.5075 61.5535 32.8197 61.7793C32.6829 61.8249 32.5441 61.8456 32.4095 61.8456Z" fill="#C90200"/>
<path d="M58.3061 47.1572H20.0474C19.3222 47.1572 18.7339 46.5689 18.7339 45.8437C18.7339 45.1186 19.3222 44.5303 20.0474 44.5303H58.3061C59.0312 44.5303 59.6196 45.1186 59.6196 45.8437C59.6196 46.5689 59.0312 47.1572 58.3061 47.1572Z" fill="#C90200"/>
<path d="M43.5223 77.0502C42.7972 77.0502 42.2088 76.4618 42.2088 75.7367V65.4361C42.2088 64.7109 42.7972 64.1226 43.5223 64.1226C44.2474 64.1226 44.8358 64.7109 44.8358 65.4361V75.7367C44.8358 76.4618 44.2474 77.0502 43.5223 77.0502Z" fill="#C90200"/>
<path d="M38.7924 77.0506C38.0673 77.0506 37.479 76.4622 37.479 75.7371V70.2056C37.479 69.4805 38.0673 68.8921 38.7924 68.8921C39.5175 68.8921 40.1059 69.4805 40.1059 70.2056V75.7371C40.1059 76.4622 39.5175 77.0506 38.7924 77.0506Z" fill="#C90200"/>
<path d="M51.0883 77.0503H31.1395C30.4144 77.0503 29.8261 76.4619 29.8261 75.7368C29.8261 75.0117 30.4144 74.4233 31.1395 74.4233H51.0883C51.8134 74.4233 52.4018 75.0117 52.4018 75.7368C52.4018 76.4619 51.8134 77.0503 51.0883 77.0503Z" fill="#C90200"/>
<path d="M12.9663 66.7496H7.37681C3.5068 66.7496 0.357788 63.6006 0.357788 59.7305V20.958C0.357788 17.088 3.5068 13.939 7.37681 13.939H18.6844C19.4095 13.939 19.9978 14.5274 19.9978 15.2525C19.9978 15.9776 19.4095 16.5659 18.6844 16.5659H7.37681C4.95287 16.5659 2.98266 18.5382 2.98266 20.9601V59.7326C2.98266 62.1566 4.95495 64.1268 7.37681 64.1268H12.9663C13.6915 64.1268 14.2798 64.7152 14.2798 65.4403C14.2798 66.1654 13.6915 66.7537 12.9663 66.7537V66.7496Z" fill="#C90200"/>
<path d="M40.7938 16.5637H37.9576C36.381 16.5637 35.0986 15.2813 35.0986 13.7026V11.0446C35.0986 9.36858 36.4618 8.00537 38.1378 8.00537H40.8331C42.3911 8.00537 43.6569 9.2712 43.6569 10.8291V10.9825C43.6569 11.7076 43.0685 12.296 42.3434 12.296C41.6183 12.296 41.0299 11.7076 41.0299 10.9825V10.8291C41.0299 10.7193 40.9409 10.6303 40.8311 10.6303H38.1357C37.9078 10.6303 37.7235 10.8147 37.7235 11.0425V13.7006C37.7235 13.8311 37.8291 13.9368 37.9576 13.9368H40.7938C41.5189 13.9368 42.1072 14.5251 42.1072 15.2503C42.1072 15.9754 41.5189 16.5637 40.7938 16.5637Z" fill="#C90200"/>
<path d="M40.6156 22.4949H37.9224C36.3644 22.4949 35.0986 21.229 35.0986 19.6711V19.3189C35.0986 18.5938 35.6869 18.0054 36.4121 18.0054C37.1372 18.0054 37.7255 18.5938 37.7255 19.3189V19.6711C37.7255 19.7809 37.8146 19.87 37.9244 19.87H40.6177C40.8456 19.87 41.032 19.6856 41.032 19.4556V16.7976C41.032 16.6692 40.9264 16.5635 40.7959 16.5635H37.9597C37.2346 16.5635 36.6462 15.9751 36.6462 15.25C36.6462 14.5249 37.2346 13.9365 37.9597 13.9365H40.7959C42.3725 13.9365 43.657 15.2189 43.657 16.7955V19.4536C43.657 21.1296 42.2937 22.4928 40.6177 22.4928L40.6156 22.4949Z" fill="#C90200"/>
<path d="M39.3768 10.6307C38.6517 10.6307 38.0634 10.0423 38.0634 9.31723V7.46093C38.0634 6.73583 38.6517 6.14746 39.3768 6.14746C40.1019 6.14746 40.6903 6.73583 40.6903 7.46093V9.31723C40.6903 10.0423 40.1019 10.6307 39.3768 10.6307Z" fill="#C90200"/>
<path d="M39.3768 24.3514C38.6517 24.3514 38.0634 23.763 38.0634 23.0379V21.1817C38.0634 20.4566 38.6517 19.8682 39.3768 19.8682C40.1019 19.8682 40.6903 20.4566 40.6903 21.1817V23.0379C40.6903 23.763 40.1019 24.3514 39.3768 24.3514Z" fill="#C90200"/>
<path d="M39.3767 29.7606C31.3757 29.7606 24.8663 23.2512 24.8663 15.2502C24.8663 7.24915 31.3757 0.739746 39.3767 0.739746C47.3778 0.739746 53.8872 7.24915 53.8872 15.2502C53.8872 23.2512 47.3778 29.7606 39.3767 29.7606ZM39.3767 3.36464C32.8238 3.36464 27.4912 8.69522 27.4912 15.2502C27.4912 21.8052 32.8217 27.1357 39.3767 27.1357C45.9317 27.1357 51.2623 21.8052 51.2623 15.2502C51.2623 8.69522 45.9317 3.36464 39.3767 3.36464Z" fill="#C90200"/>
</svg>
