<svg width="16" height="17" viewBox="0 0 16 17" fill="none" xmlns="http://www.w3.org/2000/svg">
<g clip-path="url(#clip0_2443_8243)">
<path d="M14.8156 0.739746H1.18125C0.528125 0.739746 0 1.25537 0 1.89287V15.5835C0 16.221 0.528125 16.7397 1.18125 16.7397H14.8156C15.4688 16.7397 16 16.221 16 15.5866V1.89287C16 1.25537 15.4688 0.739746 14.8156 0.739746ZM4.74687 14.3741H2.37188V6.73662H4.74687V14.3741ZM3.55938 5.696C2.79688 5.696 2.18125 5.08037 2.18125 4.321C2.18125 3.56162 2.79688 2.946 3.55938 2.946C4.31875 2.946 4.93437 3.56162 4.93437 4.321C4.93437 5.07725 4.31875 5.696 3.55938 5.696ZM13.6344 14.3741H11.2625V10.6616C11.2625 9.77725 11.2469 8.63662 10.0281 8.63662C8.79375 8.63662 8.60625 9.60225 8.60625 10.5991V14.3741H6.2375V6.73662H8.5125V7.78037H8.54375C8.85938 7.18037 9.63438 6.546 10.7875 6.546C13.1906 6.546 13.6344 8.12725 13.6344 10.1835V14.3741Z" fill="white"/>
</g>
<defs>
<clipPath id="clip0_2443_8243">
<rect width="16" height="16" fill="white" transform="translate(0 0.739746)"/>
</clipPath>
</defs>
</svg>
