<svg width="78" height="74" viewBox="0 0 78 74" fill="none" xmlns="http://www.w3.org/2000/svg">
<path d="M76.1117 39.0857H40.3481C39.7633 39.0857 39.2618 38.6732 39.1457 38.1021L31.9256 2.30942C31.852 1.94929 31.9449 1.57366 32.1792 1.28904C32.4116 1.00442 32.7601 0.839844 33.128 0.839844H68.8916C69.4763 0.839844 69.9778 1.25226 70.0939 1.82343L77.314 37.6161C77.3876 37.9762 77.2947 38.3499 77.0604 38.6345C76.828 38.9191 76.4795 39.0837 76.1117 39.0837V39.0857ZM41.3529 36.6325H74.613L67.8867 3.29301H34.6266L41.3529 36.6325Z" fill="#C90200"/>
<path d="M64.1284 39.0857H52.3292C51.7445 39.0857 51.243 38.6732 51.1268 38.1021L43.9048 2.30942C43.8312 1.94929 43.9242 1.57366 44.1584 1.28904C44.3908 1.00442 44.7393 0.839844 45.1072 0.839844H56.9064C57.4911 0.839844 57.9926 1.25226 58.1088 1.82343L65.3308 37.6161C65.4044 37.9762 65.3115 38.3499 65.0772 38.6345C64.8448 38.9191 64.4963 39.0837 64.1284 39.0837V39.0857ZM53.3341 36.6325H62.6298L55.9035 3.29301H46.6077L53.3341 36.6325Z" fill="#C90200"/>
<path d="M73.7515 27.383H37.9879C37.4032 27.383 36.9017 26.9725 36.7856 26.3994L34.2859 14.0135C34.2123 13.6534 34.3053 13.2778 34.5396 12.9931C34.7719 12.7085 35.1204 12.5439 35.4883 12.5439H71.2519C71.8366 12.5439 72.3381 12.9564 72.4543 13.5275L74.9539 25.9134C75.0275 26.2736 74.9346 26.6472 74.7003 26.9338C74.4679 27.2184 74.1194 27.383 73.7515 27.383ZM38.9909 24.9279H72.251L70.247 14.9952H36.9869L38.9909 24.9279Z" fill="#C90200"/>
<path d="M34.0147 73.7395C15.6227 73.7395 0.661697 58.7765 0.661697 40.3864C0.661697 23.95 12.9062 9.76345 29.1432 7.38579C29.8112 7.28704 30.4366 7.75173 30.5354 8.42166C30.6341 9.09158 30.1694 9.71504 29.4995 9.81379C14.4591 12.0172 3.1168 25.1601 3.1168 40.3864C3.1168 57.425 16.9781 71.2863 34.0167 71.2863C50.0194 71.2863 63.5476 58.8075 64.8178 42.8764C64.872 42.2006 65.4683 41.6992 66.1383 41.7514C66.814 41.8057 67.3174 42.3962 67.2632 43.0719C65.8924 60.2693 51.2876 73.7395 34.0147 73.7395Z" fill="#C90200"/>
<path d="M22.3105 65.9021C20.0742 65.9021 17.5784 63.4219 16.9394 57.7972C16.4225 53.2394 14.9916 51.065 10.55 44.8769C7.59726 40.7644 2.13717 41.5912 2.08295 41.597C1.41303 41.7054 0.783761 41.2485 0.67727 40.5805C0.568842 39.9125 1.02579 39.2832 1.69378 39.1748C1.9784 39.1303 8.71639 38.1138 12.5423 43.4461C16.8136 49.3941 18.7633 52.1106 19.3771 57.5203C19.8883 62.0278 21.6038 63.4509 22.3337 63.447C22.7965 63.4277 23.1508 62.719 23.1759 61.7625C23.3192 56.3838 25.6349 53.8319 27.4937 51.7795C29.0291 50.0853 30.2412 48.7493 30.2412 46.1277C30.2412 45.0628 29.8849 44.7433 29.7668 44.6388C28.849 43.8178 26.3436 44.1005 23.9195 44.3735C20.7015 44.7356 17.3732 45.1112 15.0245 43.539C10.6681 40.627 11.4193 35.5076 12.4242 33.2094C12.4765 33.0913 12.5462 32.9828 12.6314 32.886C13.7757 31.5984 15.6732 32.1967 17.5068 32.7737C18.8524 33.1977 20.5253 33.7244 21.2591 33.2713C21.5747 33.0758 21.7916 32.6111 21.9019 31.8947C22.4808 28.1404 25.5749 26.1732 28.5663 24.2719C29.6661 23.5729 30.8046 22.8487 31.8192 22.0394C32.3497 21.6173 33.1203 21.7044 33.5443 22.233C33.9664 22.7616 33.8793 23.5342 33.3507 23.9563C32.2335 24.8469 31.0389 25.6078 29.883 26.3417C27.12 28.0978 24.7365 29.6138 24.3261 32.2684C24.1015 33.7244 23.5051 34.7622 22.5525 35.3547C20.8641 36.4041 18.6878 35.7187 16.7671 35.1127C16.0933 34.8997 15.0207 34.5628 14.5347 34.5628H14.5308C14.132 35.74 13.2258 39.3858 16.3857 41.4982C17.9889 42.5709 20.8641 42.2476 23.6426 41.9339C26.7386 41.5854 29.6622 41.2562 31.399 42.8091C32.2567 43.5758 32.6924 44.693 32.6924 46.1277C32.6924 49.6961 30.973 51.5936 29.3079 53.4272C27.4743 55.4486 25.7434 57.3577 25.6252 61.8284C25.5536 64.5468 23.9717 65.8324 22.4363 65.8983C22.3937 65.8983 22.3492 65.9002 22.3066 65.9002L22.3105 65.9021Z" fill="#C90200"/>
<path d="M15.5431 23.6006C13.2603 23.6006 10.7839 21.9006 9.35112 20.5201C8.8632 20.0496 8.8477 19.2732 9.3182 18.7853C9.78869 18.2974 10.5632 18.2819 11.0511 18.7524C11.0898 18.7892 14.9487 22.3421 16.5848 20.7254L17.1172 20.1968C20.0002 17.3293 21.8764 15.6177 23.6306 16.0882C24.1437 16.2256 24.8059 16.6032 25.166 17.6236C25.9541 17.7882 28.3336 17.3002 29.7916 17.0001C30.4886 16.8568 31.1857 16.7136 31.8459 16.5955C32.5139 16.4754 33.1509 16.9207 33.269 17.5868C33.3891 18.2548 32.9437 18.8918 32.2777 19.0099C31.6368 19.1241 30.9611 19.2635 30.2853 19.4029C26.6433 20.1523 23.499 20.7989 22.8774 18.5258C22.8774 18.522 22.8755 18.5181 22.8736 18.5123C21.9616 18.8376 19.886 20.9035 18.8482 21.9355L18.3099 22.4699C17.4909 23.2792 16.5344 23.5987 15.5431 23.5987V23.6006Z" fill="#C90200"/>
<path d="M59.0152 61.7896C58.6802 61.7896 58.3452 61.6521 58.1032 61.383C57.9212 61.1816 53.6693 56.345 53.6693 47.241C53.6693 45.4751 53.2898 43.9804 52.5424 42.7974C52.1804 42.2243 52.3507 41.4672 52.9239 41.1051C53.497 40.7431 54.254 40.9135 54.6161 41.4866C55.6171 43.0684 56.1225 45.0047 56.1225 47.241C56.1225 55.4156 59.8903 59.7004 59.9271 59.743C60.3802 60.2464 60.3395 61.0229 59.8342 61.4759C59.5999 61.687 59.3075 61.7896 59.0152 61.7896Z" fill="#C90200"/>
</svg>
