<svg width="72" height="72" viewBox="0 0 72 72" fill="none" xmlns="http://www.w3.org/2000/svg">
<path d="M36.2788 8.91841C35.6162 8.91841 35.0785 8.3807 35.0785 7.71804V1.93962C35.0785 1.27695 35.6162 0.739258 36.2788 0.739258C36.9415 0.739258 37.4792 1.27695 37.4792 1.93962V7.71804C37.4792 8.3807 36.9415 8.91841 36.2788 8.91841Z" fill="#C90200"/>
<path d="M22.0202 12.7407C21.6055 12.7407 21.2023 12.5267 20.9807 12.1405L18.0915 7.13644C17.7602 6.56276 17.9571 5.82816 18.5308 5.49682C19.1045 5.16549 19.8391 5.3624 20.1704 5.93608L23.0596 10.9401C23.3909 11.5138 23.1941 12.2484 22.6204 12.5797C22.4311 12.6895 22.2247 12.7407 22.0221 12.7407H22.0202Z" fill="#C90200"/>
<path d="M11.5784 23.18C11.3759 23.18 11.1695 23.1289 10.9802 23.0191L5.97609 20.1299C5.40241 19.7986 5.20554 19.064 5.53687 18.4903C5.8682 17.9166 6.6028 17.7197 7.17647 18.051L12.1805 20.9402C12.7542 21.2716 12.9511 22.0062 12.6198 22.5798C12.3983 22.9642 11.995 23.18 11.5803 23.18H11.5784Z" fill="#C90200"/>
<path d="M7.7579 37.4403H1.97948C1.31682 37.4403 0.779099 36.9026 0.779099 36.2399C0.779099 35.5773 1.31682 35.0396 1.97948 35.0396H7.7579C8.42056 35.0396 8.95824 35.5773 8.95824 36.2399C8.95824 36.9026 8.42056 37.4403 7.7579 37.4403Z" fill="#C90200"/>
<path d="M6.5763 54.5897C6.16167 54.5897 5.75839 54.3739 5.53687 53.9895C5.20554 53.4158 5.40241 52.6812 5.97609 52.3499L10.9802 49.4607C11.5538 49.1294 12.2884 49.3263 12.6198 49.8999C12.9511 50.4736 12.7542 51.2082 12.1805 51.5396L7.17647 54.4288C6.98714 54.5386 6.78078 54.5897 6.5782 54.5897H6.5763Z" fill="#C90200"/>
<path d="M19.1291 67.1425C18.9246 67.1425 18.7201 67.0914 18.5308 66.9816C17.9571 66.6503 17.7602 65.9157 18.0915 65.342L20.9807 60.3379C21.3121 59.7643 22.0467 59.5673 22.6204 59.8987C23.1941 60.23 23.3909 60.9646 23.0596 61.5383L20.1704 66.5424C19.9489 66.9267 19.5456 67.1425 19.131 67.1425H19.1291Z" fill="#C90200"/>
<path d="M36.2788 71.7392C35.6162 71.7392 35.0785 71.2015 35.0785 70.5388V64.7604C35.0785 64.0978 35.6162 63.5601 36.2788 63.5601C36.9415 63.5601 37.4792 64.0978 37.4792 64.7604V70.5388C37.4792 71.2015 36.9415 71.7392 36.2788 71.7392Z" fill="#C90200"/>
<path d="M60.9811 23.18C60.5665 23.18 60.1632 22.9642 59.9417 22.5798C59.6104 22.0062 59.8072 21.2716 60.3809 20.9402L65.385 18.051C65.9606 17.7197 66.6932 17.9166 67.0246 18.4903C67.3559 19.064 67.159 19.7986 66.5853 20.1299L61.5813 23.0191C61.3919 23.1289 61.1856 23.18 60.983 23.18H60.9811Z" fill="#C90200"/>
<path d="M50.5375 12.7407C50.3349 12.7407 50.1286 12.6895 49.9392 12.5797C49.3656 12.2484 49.1686 11.5138 49.5 10.9401L52.3892 5.93608C52.7205 5.3624 53.4551 5.16549 54.0288 5.49682C54.6025 5.82816 54.7994 6.56276 54.468 7.13644L51.5788 12.1405C51.3573 12.5248 50.954 12.7407 50.5394 12.7407H50.5375Z" fill="#C90200"/>
<path d="M36.2789 59.3831C23.5179 59.3831 13.1349 49.0021 13.1349 36.2392C13.1349 23.4763 23.516 13.0952 36.2789 13.0952C46.2965 13.0952 55.1326 19.4833 58.2641 28.9915C58.4724 29.6201 58.1297 30.2998 57.5012 30.5062C56.8688 30.7126 56.1929 30.3718 55.9865 29.7432C53.1787 21.2213 45.2589 15.4959 36.2789 15.4959C24.8414 15.4959 15.5357 24.8016 15.5357 36.2392C15.5357 47.6767 24.8414 56.9824 36.2789 56.9824C39.2722 56.9824 42.1577 56.3595 44.8595 55.1307C45.4615 54.8543 46.1734 55.1232 46.4479 55.7252C46.7225 56.3292 46.4555 57.0392 45.8534 57.3137C42.8393 58.6864 39.6168 59.3812 36.2808 59.3812L36.2789 59.3831Z" fill="#C90200"/>
<path d="M49.3713 67.1545C49.1801 67.1545 48.9851 67.109 48.8071 67.0125C48.3243 66.755 48.0781 66.2059 48.205 65.6739L51.488 51.9719H44.017C43.5437 51.9719 43.1158 51.6936 42.9226 51.2638C42.7295 50.8321 42.8072 50.3266 43.1215 49.9745L62.3064 28.4606C62.6719 28.0517 63.2702 27.94 63.7568 28.1956C64.2433 28.4493 64.4952 29.0021 64.3683 29.5379L61.3068 42.3482H70.0217C70.4988 42.3482 70.9287 42.6303 71.1199 43.0657C71.3111 43.5012 71.2259 44.0105 70.9041 44.3608L50.2536 66.7644C50.0207 67.0163 49.6989 67.1507 49.3713 67.1507V67.1545ZM46.6941 49.575H53.0103C53.3776 49.575 53.724 49.7435 53.9531 50.0313C54.1803 50.319 54.2636 50.6958 54.1784 51.0537L51.613 61.7547L67.2878 44.7508H59.7902C59.4229 44.7508 59.0764 44.5823 58.8473 44.2945C58.6201 44.0067 58.5369 43.63 58.6221 43.2721L60.93 33.6124L46.6941 49.575Z" fill="#C90200"/>
</svg>
