<svg width="76" height="73" viewBox="0 0 76 73" fill="none" xmlns="http://www.w3.org/2000/svg">
<path d="M74.6803 60.0539H1.31905C0.833109 60.0539 0.387661 59.7786 0.171012 59.3432C-0.0456381 58.9079 0.00295637 58.3876 0.294522 57.9988L17.4868 35.206C17.7298 34.8841 18.1084 34.6958 18.5113 34.6958H57.488C57.8909 34.6958 58.2696 34.8841 58.5125 35.206L75.7048 57.9988C75.9984 58.3876 76.045 58.9079 75.8283 59.3432C75.6117 59.7786 75.1662 60.0539 74.6803 60.0539ZM3.89455 57.4886H72.1068L56.8502 37.2612H19.1511L3.89455 57.4886Z" fill="#C90200"/>
<path d="M25.5313 60.0543C25.3997 60.0543 25.2681 60.034 25.1365 59.9915C24.4623 59.7728 24.0937 59.05 24.3104 58.3757L30.3239 39.7985C30.5426 39.1243 31.2675 38.7578 31.9397 38.9724C32.614 39.1911 32.9825 39.914 32.7658 40.5882L26.7523 59.1654C26.5761 59.708 26.074 60.0522 25.5313 60.0522V60.0543Z" fill="#C90200"/>
<path d="M49.2251 55.8386C48.6845 55.8386 48.1803 55.4944 48.0042 54.9518L41.9927 36.3746C41.774 35.7003 42.1445 34.9775 42.8188 34.7588C43.493 34.5422 44.2158 34.9107 44.4345 35.5849L50.446 54.1621C50.6647 54.8364 50.2942 55.5592 49.6199 55.7779C49.4883 55.8204 49.3547 55.8407 49.2251 55.8407V55.8386Z" fill="#C90200"/>
<path d="M41.618 72.7373H34.3795C33.6708 72.7373 33.0958 72.1623 33.0958 71.4536V58.7705C33.0958 58.0619 33.6708 57.4868 34.3795 57.4868H41.618C42.3267 57.4868 42.9017 58.0619 42.9017 58.7705V66.4889C42.9017 67.1976 42.3267 67.7726 41.618 67.7726C40.9094 67.7726 40.3343 67.1976 40.3343 66.4889V60.0542H35.6612V70.172H41.618C42.3267 70.172 42.9017 70.747 42.9017 71.4557C42.9017 72.1643 42.3267 72.7394 41.618 72.7394V72.7373Z" fill="#C90200"/>
<path d="M53.2523 72.7378H22.7472C22.0386 72.7378 21.4635 72.1628 21.4635 71.4541C21.4635 70.7454 22.0386 70.1704 22.7472 70.1704H53.2523C53.961 70.1704 54.536 70.7454 54.536 71.4541C54.536 72.1628 53.961 72.7378 53.2523 72.7378Z" fill="#C90200"/>
<path d="M65.2167 48.6592H17.659C16.9504 48.6592 16.3753 48.0842 16.3753 47.3755C16.3753 46.6668 16.9504 46.0918 17.659 46.0918H65.2146C65.9233 46.0918 66.4983 46.6668 66.4983 47.3755C66.4983 48.0842 65.9233 48.6592 65.2146 48.6592H65.2167Z" fill="#C90200"/>
<path d="M8.49692 41.4769C8.16891 41.4769 7.8409 41.3514 7.58982 41.1003L3.69013 37.2006C2.2161 35.7266 1.4062 33.7686 1.4062 31.6851V20.879C1.4062 16.5784 4.90499 13.0796 9.20559 13.0796H14.1561C14.8648 13.0796 15.4398 13.6546 15.4398 14.3633C15.4398 15.072 14.8648 15.647 14.1561 15.647H9.20559C6.3203 15.647 3.97157 17.9957 3.97157 20.881V31.6872C3.97157 33.0863 4.51623 34.4003 5.50432 35.3884L9.40401 39.2881C9.90615 39.7903 9.90615 40.6002 9.40401 41.1023C9.15294 41.3534 8.82493 41.4789 8.49692 41.4789V41.4769Z" fill="#C90200"/>
<path d="M49.0408 27.8866H22.3807C20.0178 27.8866 18.0943 25.9631 18.0943 23.6002V5.12628C18.0943 2.76338 20.0178 0.839844 22.3807 0.839844H49.0388C51.4017 0.839844 53.3252 2.76338 53.3252 5.12628V6.09816H54.9835C56.5932 6.09816 57.9032 7.40818 57.9032 9.01787V19.7086C57.9032 21.3183 56.5932 22.6283 54.9835 22.6283H53.3252V23.6022C53.3252 25.9651 51.4017 27.8887 49.0388 27.8887L49.0408 27.8866ZM22.3807 3.40523C21.4311 3.40523 20.6597 4.17666 20.6597 5.12628V23.6002C20.6597 24.5498 21.4311 25.3213 22.3807 25.3213H49.0388C49.9884 25.3213 50.7598 24.5498 50.7598 23.6002V21.3446C50.7598 20.636 51.3349 20.0609 52.0435 20.0609H54.9835C55.1779 20.0609 55.3358 19.903 55.3358 19.7086V9.01787C55.3358 8.82349 55.1779 8.66353 54.9835 8.66353H52.0435C51.3349 8.66353 50.7598 8.08851 50.7598 7.37984V5.12425C50.7598 4.17464 49.9884 3.4032 49.0388 3.4032H22.3807V3.40523Z" fill="#C90200"/>
<path d="M52.0333 22.6257C51.3247 22.6257 50.7496 22.0506 50.7496 21.342V18.4121C50.7496 17.7035 51.3247 17.1284 52.0333 17.1284C52.742 17.1284 53.3171 17.7035 53.3171 18.4121V21.342C53.3171 22.0506 52.742 22.6257 52.0333 22.6257Z" fill="#C90200"/>
<path d="M24.5249 22.6972C23.8162 22.6972 23.2412 22.1221 23.2412 21.4135V7.45069C23.2412 6.74202 23.8162 6.16699 24.5249 6.16699C25.2336 6.16699 25.8086 6.74202 25.8086 7.45069V21.4135C25.8086 22.1221 25.2336 22.6972 24.5249 22.6972Z" fill="#C90200"/>
<path d="M29.7001 22.6972C28.9915 22.6972 28.4164 22.1221 28.4164 21.4135V7.45069C28.4164 6.74202 28.9915 6.16699 29.7001 6.16699C30.4088 6.16699 30.9838 6.74202 30.9838 7.45069V21.4135C30.9838 22.1221 30.4088 22.6972 29.7001 22.6972Z" fill="#C90200"/>
<path d="M34.8047 22.6972C34.096 22.6972 33.521 22.1221 33.521 21.4135V7.45069C33.521 6.74202 34.096 6.16699 34.8047 6.16699C35.5133 6.16699 36.0884 6.74202 36.0884 7.45069V21.4135C36.0884 22.1221 35.5133 22.6972 34.8047 22.6972Z" fill="#C90200"/>
</svg>
