<svg width="70" height="71" viewBox="0 0 70 71" fill="none" xmlns="http://www.w3.org/2000/svg">
<path d="M61.25 50.3232V56.1566C61.25 59.3782 58.6383 61.9899 55.4167 61.9899H49.5833" stroke="#C90200" stroke-width="3" stroke-linecap="round" stroke-linejoin="round"/>
<path d="M8.75 26.9897V15.3231C8.75 12.1014 11.3617 9.48975 14.5833 9.48975H20.4167" stroke="#C90200" stroke-width="3" stroke-linecap="round" stroke-linejoin="round"/>
<path d="M29.1667 24.0731V15.3231C29.1667 12.1014 31.7783 9.48975 35 9.48975H55.4167C58.6383 9.48975 61.25 12.1014 61.25 15.3231V35.7397C61.25 38.9614 58.6383 41.5731 55.4167 41.5731H40.8333" stroke="#C90200" stroke-width="3" stroke-linecap="round" stroke-linejoin="round"/>
<path d="M37.9167 21.1566H52.5" stroke="#C90200" stroke-width="3" stroke-linecap="round" stroke-linejoin="round"/>
<path d="M40.8333 29.9066H52.5" stroke="#C90200" stroke-width="3" stroke-linecap="round" stroke-linejoin="round"/>
<ellipse cx="23.3333" cy="40.1149" rx="7.29167" ry="7.29167" stroke="#C90200" stroke-width="3" stroke-linecap="round" stroke-linejoin="round"/>
<path d="M37.9167 61.9899C37.9167 57.9628 34.6521 54.6982 30.625 54.6982H16.0417C12.0146 54.6982 8.75 57.9628 8.75 61.9899" stroke="#C90200" stroke-width="3" stroke-linecap="round" stroke-linejoin="round"/>
</svg>
