<svg width="68" height="71" viewBox="0 0 68 71" fill="none" xmlns="http://www.w3.org/2000/svg">
<path d="M17.5038 23.7916C15.4738 23.7916 13.8238 22.1398 13.8238 20.1116C13.8238 18.0835 15.4756 16.4316 17.5038 16.4316C19.5319 16.4316 21.1838 18.0835 21.1838 20.1116C21.1838 22.1398 19.5319 23.7916 17.5038 23.7916ZM17.5038 18.7571C16.7568 18.7571 16.1493 19.3646 16.1493 20.1116C16.1493 20.8586 16.7568 21.4662 17.5038 21.4662C18.2508 21.4662 18.8584 20.8586 18.8584 20.1116C18.8584 19.3646 18.2508 18.7571 17.5038 18.7571Z" fill="#C90200"/>
<path d="M16.2851 18.7571C15.6941 18.7571 15.1875 18.3093 15.1288 17.7091L14.2037 8.31915C13.9779 6.02305 14.3836 3.71044 15.3765 1.62908C15.5307 1.30789 15.8244 1.07295 16.1713 0.995866C16.52 0.918779 16.8853 1.00505 17.1606 1.2308L19.2015 2.89918C20.4386 3.91049 21.0847 5.46325 20.9269 7.05455L20.4588 11.8009C20.3964 12.4396 19.822 12.9058 19.1869 12.8434C18.5482 12.781 18.0801 12.212 18.1444 11.5715L18.6124 6.82512C18.6913 6.01204 18.3627 5.2173 17.7295 4.69972L16.9238 4.04081C16.5219 5.34579 16.3805 6.72235 16.5163 8.09156L17.4414 17.4815C17.5038 18.1202 17.0376 18.6892 16.3988 18.7534C16.3603 18.7571 16.3218 18.7589 16.2832 18.7589L16.2851 18.7571Z" fill="#C90200"/>
<path d="M2.47183 31.1986C2.1488 31.1986 1.83684 31.0627 1.61659 30.8223C1.37432 30.5598 1.2678 30.2001 1.3247 29.8477L1.74869 27.2451C2.00565 25.6685 3.02795 24.3323 4.48343 23.6734L8.28643 21.9499C8.87193 21.6856 9.56023 21.9444 9.82637 22.5281C10.0925 23.1136 9.8318 23.8019 9.24814 24.068L5.44334 25.7915C4.69817 26.1292 4.17515 26.8119 4.04483 27.6177L3.87778 28.6455C5.20845 28.3408 6.47116 27.7737 7.58892 26.9716L15.2591 21.4764C15.7822 21.102 16.5091 21.2231 16.8817 21.7444C17.2561 22.2675 17.135 22.9925 16.6137 23.3669L8.94352 28.8621C7.06774 30.2056 4.86337 31.0114 2.5636 31.1912C2.5324 31.1931 2.50308 31.1949 2.47371 31.1949L2.47183 31.1986Z" fill="#C90200"/>
<path d="M29.8746 30.4992C28.8945 30.4992 27.9235 30.1963 27.1031 29.6053L23.7094 27.1734C23.1881 26.799 23.067 26.0722 23.4414 25.5509C23.8159 25.0297 24.5427 24.9085 25.064 25.2829L28.4576 27.7149C29.122 28.1921 29.9737 28.3022 30.7409 28.014L31.7137 27.6451C30.785 26.6448 29.6617 25.8336 28.4099 25.2664L19.8147 21.3717C19.2292 21.1074 18.9704 20.4173 19.2366 19.8318C19.5009 19.2481 20.1891 18.9857 20.7764 19.2536L29.3716 23.1484C31.4714 24.1009 33.2719 25.6078 34.5768 27.5093C34.7787 27.8048 34.8357 28.1737 34.7274 28.5151C34.6209 28.8565 34.3639 29.1281 34.0299 29.2548L31.565 30.189C31.0162 30.3964 30.4435 30.4992 29.8764 30.4992H29.8746Z" fill="#C90200"/>
<path d="M29.3441 22.0284C28.9697 22.0284 28.6044 21.8485 28.3787 21.5163C28.0189 20.984 28.1585 20.2609 28.6926 19.903L28.8266 19.8131C29.6452 19.2588 30.1352 18.3374 30.1352 17.3481C30.1352 16.7406 29.6414 16.2487 29.0358 16.2487H22.3512C21.7088 16.2487 21.1876 15.7274 21.1876 15.085C21.1876 14.4426 21.7088 13.9214 22.3512 13.9214H29.0358C30.9244 13.9214 32.4625 15.4576 32.4625 17.3481C32.4625 19.1119 31.5907 20.7528 30.1279 21.7402L29.9939 21.8302C29.7938 21.966 29.5681 22.0302 29.3441 22.0302V22.0284Z" fill="#C90200"/>
<path d="M17.5458 51.6649C16.9034 51.6649 16.3822 51.1436 16.3822 50.5013V26.9952C16.3822 26.3528 16.9034 25.8315 17.5458 25.8315C18.1882 25.8315 18.7095 26.3528 18.7095 26.9952V50.5013C18.7095 51.1436 18.1882 51.6649 17.5458 51.6649Z" fill="#C90200"/>
<path d="M50.6971 35.4781C48.6671 35.4781 47.0171 33.8263 47.0171 31.7982C47.0171 29.77 48.669 28.1182 50.6971 28.1182C52.7252 28.1182 54.3771 29.77 54.3771 31.7982C54.3771 33.8263 52.7252 35.4781 50.6971 35.4781ZM50.6971 30.4436C49.9501 30.4436 49.3426 31.0511 49.3426 31.7982C49.3426 32.5452 49.9501 33.1527 50.6971 33.1527C51.4441 33.1527 52.0516 32.5452 52.0516 31.7982C52.0516 31.0511 51.4441 30.4436 50.6971 30.4436Z" fill="#C90200"/>
<path d="M49.4786 30.4436C48.8876 30.4436 48.3809 29.9958 48.3222 29.3956L47.3972 20.0057C47.1714 17.7114 47.5771 15.397 48.57 13.3156C48.7242 12.9944 49.0179 12.7595 49.3648 12.6824C49.7135 12.6053 50.0787 12.6916 50.354 12.9173L52.395 14.5857C53.632 15.597 54.2781 17.1498 54.1202 18.7411L53.6522 23.4874C53.5898 24.1262 53.0153 24.5942 52.3803 24.5299C51.7415 24.4675 51.2736 23.8986 51.3378 23.258L51.8058 18.5116C51.8847 17.6986 51.5562 16.9038 50.923 16.3862L50.1173 15.7273C49.7153 17.0323 49.574 18.4089 49.7098 19.7781L50.6348 29.168C50.6972 29.8067 50.231 30.3757 49.5923 30.44C49.5538 30.4436 49.5152 30.4455 49.4767 30.4455L49.4786 30.4436Z" fill="#C90200"/>
<path d="M35.6652 42.8873C35.3421 42.8873 35.0301 42.7515 34.8098 42.511C34.5676 42.2486 34.4611 41.8888 34.518 41.5364L34.942 38.9338C35.199 37.3572 36.2213 36.0228 37.6768 35.3621L41.4816 33.6387C42.0689 33.3744 42.7572 33.6331 43.0215 34.2168C43.2876 34.8023 43.027 35.4906 42.4434 35.7567L38.6386 37.4802C37.8934 37.8179 37.3703 38.5006 37.24 39.3082L37.0729 40.3361C38.4036 40.0332 39.6664 39.4661 40.7841 38.664L48.4543 33.1688C48.9774 32.7944 49.7024 32.9155 50.0768 33.4368C50.4512 33.9598 50.3301 34.6848 49.8088 35.0593L42.1387 40.5545C40.2629 41.898 38.0567 42.7037 35.7588 42.8836C35.7295 42.8854 35.6982 42.8873 35.6688 42.8873H35.6652Z" fill="#C90200"/>
<path d="M63.0679 42.1873C62.0878 42.1873 61.1169 41.8845 60.2965 41.2935L56.9028 38.8616C56.3815 38.4872 56.2604 37.7603 56.6348 37.2391C57.0093 36.7178 57.736 36.5985 58.2573 36.9711L61.651 39.403C62.3154 39.8802 63.167 39.9922 63.9342 39.7022L64.907 39.3333C63.9783 38.333 62.855 37.5217 61.6032 36.9546L53.0081 33.0599C52.4226 32.7956 52.1637 32.1054 52.4299 31.5199C52.6942 30.9363 53.3843 30.6757 53.9698 30.9418L62.565 34.8365C64.6647 35.7891 66.4653 37.296 67.7702 39.1975C67.9721 39.493 68.0291 39.8619 67.9208 40.2033C67.8143 40.5446 67.5573 40.8163 67.2233 40.9429L64.7584 41.8772C64.2096 42.0846 63.6369 42.1873 63.0698 42.1873H63.0679Z" fill="#C90200"/>
<path d="M62.5375 33.7164C62.163 33.7164 61.7977 33.5365 61.572 33.2043C61.2123 32.672 61.3517 31.9489 61.8858 31.591L62.0198 31.501C62.8384 30.9467 63.3285 30.0254 63.3285 29.0361C63.3285 28.4286 62.8348 27.9367 62.2291 27.9367H55.5445C54.9021 27.9367 54.3809 27.4154 54.3809 26.773C54.3809 26.1306 54.9021 25.6094 55.5445 25.6094H62.2291C64.1177 25.6094 65.6558 27.1456 65.6558 29.0361C65.6558 30.7999 64.784 32.4408 63.3212 33.4282L63.1872 33.5182C62.9871 33.654 62.7614 33.7182 62.5375 33.7182V33.7164Z" fill="#C90200"/>
<path d="M50.7392 63.4837C50.0968 63.4837 49.5756 62.9624 49.5756 62.3201V38.6837C49.5756 38.0413 50.0968 37.52 50.7392 37.52C51.3816 37.52 51.903 38.0413 51.903 38.6837V62.3201C51.903 62.9624 51.3816 63.4837 50.7392 63.4837Z" fill="#C90200"/>
<path d="M57.534 64.3041C50.0896 64.3041 39.3433 62.8835 29.1641 56.377C15.2389 47.4771 1.86607 54.3379 1.73393 54.4094C1.16678 54.7104 0.463812 54.492 0.162805 53.9249C-0.136366 53.3577 0.0784449 52.6548 0.645586 52.3538C1.23659 52.0381 15.3178 44.7662 30.4177 54.4168C47.2961 65.2053 66.3752 61.2243 66.566 61.1839C67.1937 61.0463 67.8141 61.4446 67.9499 62.0723C68.0858 62.7 67.6893 63.3203 67.0616 63.4562C66.7147 63.5314 63.0237 64.3023 57.5377 64.3023L57.534 64.3041Z" fill="#C90200"/>
<path d="M57.5324 70.6106C50.1669 70.6106 39.5252 69.9077 29.4341 66.6829C15.2482 62.1494 1.62036 65.6569 1.48454 65.6917C0.858662 65.8588 0.227282 65.4862 0.0620953 64.8658C-0.101256 64.2454 0.267661 63.6086 0.888029 63.4434C1.46985 63.2892 15.285 59.7193 30.1426 64.4675C47.1734 69.9114 66.491 67.9016 66.6837 67.8814C67.3114 67.8135 67.8951 68.2723 67.9648 68.9129C68.0346 69.5516 67.5721 70.1261 66.9352 70.194C66.592 70.2307 62.9487 70.6106 57.5324 70.6106Z" fill="#C90200"/>
</svg>
