<svg width="24" height="25" viewBox="0 0 24 25" fill="none" xmlns="http://www.w3.org/2000/svg">
<path d="M10.0184 10.5752L4.71443 14.1008C4.01223 14.5675 3.79394 15.4998 4.21593 16.2298C4.63792 16.9597 5.55474 17.2358 6.30964 16.8602L12.0002 14.0291" stroke="#C90200" stroke-width="1.5" stroke-linecap="round" stroke-linejoin="round"/>
<path d="M10.0184 10.5753L10.4106 4.25132C10.4628 3.4098 11.1603 2.75389 12.0034 2.75342C12.8465 2.75295 13.5448 3.40808 13.5979 4.24955L13.9979 10.5859" stroke="#C90200" stroke-width="1.5" stroke-linecap="round" stroke-linejoin="round"/>
<path d="M13.9979 10.5859L19.2877 14.0936C19.9907 14.5598 20.2099 15.4923 19.7881 16.2228V16.2228C19.3667 16.9527 18.4506 17.2294 17.6956 16.8548L12.0002 14.0292" stroke="#C90200" stroke-width="1.5" stroke-linecap="round" stroke-linejoin="round"/>
<circle cx="12" cy="11.7305" r="2" stroke="#C90200" stroke-width="1.5" stroke-linecap="round" stroke-linejoin="round"/>
<path d="M21 22.7397H3" stroke="#C90200" stroke-width="1.5" stroke-linecap="round" stroke-linejoin="round"/>
<path d="M14.2683 22.7233L13.775 14.9097" stroke="#C90200" stroke-width="1.5" stroke-linecap="round" stroke-linejoin="round"/>
<path d="M10.2142 14.918L9.72919 22.7399" stroke="#C90200" stroke-width="1.5" stroke-linecap="round" stroke-linejoin="round"/>
</svg>
