<svg width="16" height="12" viewBox="0 0 16 12" fill="none" xmlns="http://www.w3.org/2000/svg">
<path d="M15.6704 1.89252C15.4859 1.20719 14.9456 0.666829 14.2602 0.482316C13.0082 0.139648 7.99996 0.139648 7.99996 0.139648C7.99996 0.139648 2.99175 0.139648 1.7397 0.469136C1.06754 0.653649 0.514001 1.20719 0.329488 1.89252C0 3.14458 0 5.74094 0 5.74094C0 5.74094 0 8.35049 0.329488 9.58936C0.514001 10.2747 1.05436 10.8151 1.7397 10.9996C3.00493 11.3422 7.99996 11.3422 7.99996 11.3422C7.99996 11.3422 13.0082 11.3422 14.2602 11.0127C14.9456 10.8282 15.4859 10.2879 15.6704 9.60254C15.9999 8.35049 15.9999 5.75412 15.9999 5.75412C15.9999 5.75412 16.0131 3.14458 15.6704 1.89252Z" fill="white"/>
<path d="M6.40527 8.13963L10.57 5.74096L6.40527 3.34229V8.13963Z" fill="#010203"/>
</svg>
